<svg width="1202" height="601" viewBox="0 0 1202 601" fill="none" xmlns="http://www.w3.org/2000/svg">
  <g clip-path="url(#clip0)">
    <circle cx="81" cy="61" r="8" fill="#1F262E"/>
    <circle cx="144" cy="173" r="8" fill="#1F262E"/>
    <circle cx="296" cy="74" r="8" fill="#1F262E"/>
    <circle cx="467" cy="122" r="8" fill="#1F262E"/>
    <circle cx="513" cy="14" r="8" fill="#1F262E"/>
    <circle cx="622" cy="110" r="8" fill="#1F262E"/>
    <circle cx="581" cy="308" r="8" fill="#1F262E"/>
    <circle cx="719" cy="227" r="8" fill="#1F262E"/>
    <circle cx="806" cy="61" r="8" fill="#1F262E"/>
    <circle cx="968" cy="92" r="8" fill="#1F262E"/>
    <circle cx="901" cy="218" r="8" fill="#1F262E"/>
    <circle cx="824" cy="337" r="8" fill="#1F262E"/>
    <circle cx="1056" cy="352" r="8" fill="#1F262E"/>
    <circle cx="1082" cy="278" r="8" fill="#1F262E"/>
    <circle cx="1172" cy="117" r="8" fill="#1F262E"/>
    <circle cx="1158" cy="535" r="8" fill="#1F262E"/>
    <circle cx="1028" cy="581" r="8" fill="#1F262E"/>
    <circle cx="911" cy="494" r="8" fill="#1F262E"/>
    <circle cx="730" cy="434" r="8" fill="#1F262E"/>
    <circle cx="686" cy="554" r="8" fill="#1F262E"/>
    <circle cx="499" cy="439" r="8" fill="#1F262E"/>
    <circle cx="322" cy="380" r="8" fill="#1F262E"/>
    <circle cx="400" cy="249" r="8" fill="#1F262E"/>
    <circle cx="245" cy="255" r="8" fill="#1F262E"/>
    <circle cx="81" cy="344" r="8" fill="#1F262E"/>
    <circle cx="169" cy="432" r="8" fill="#1F262E"/>
    <circle cx="134" cy="588" r="8" fill="#1F262E"/>
    <circle cx="350" cy="521" r="8" fill="#1F262E"/>
    <path d="M81 61L-42.5 -66" stroke="#1F262E" stroke-width="3"/>
    <path d="M81 61L134 -13" stroke="#1F262E" stroke-width="3"/>
    <path d="M81 61L144 173" stroke="#1F262E" stroke-width="3"/>
    <path d="M81 61L-28 117" stroke="#1F262E" stroke-width="3"/>
    <path d="M-28 117L144 173" stroke="#1F262E" stroke-width="3"/>
    <path d="M81 344L144 173" stroke="#1F262E" stroke-width="3"/>
    <path d="M81 344L245 255" stroke="#1F262E" stroke-width="3"/>
    <path d="M81 344L169 432" stroke="#1F262E" stroke-width="3"/>
    <path d="M-43 535L169 432" stroke="#1F262E" stroke-width="3"/>
    <path d="M134 588L169 432" stroke="#1F262E" stroke-width="3"/>
    <path d="M350 521L169 432" stroke="#1F262E" stroke-width="3"/>
    <path d="M322 380L169 432" stroke="#1F262E" stroke-width="3"/>
    <path d="M245 255L169 432" stroke="#1F262E" stroke-width="3"/>
    <path d="M245 255L322 380" stroke="#1F262E" stroke-width="3"/>
    <path d="M400 249L322 380" stroke="#1F262E" stroke-width="3"/>
    <path d="M350 521L322 380" stroke="#1F262E" stroke-width="3"/>
    <path d="M499 439L322 380" stroke="#1F262E" stroke-width="3"/>
    <path d="M499 439L400 249" stroke="#1F262E" stroke-width="3"/>
    <path d="M581 308L400 249" stroke="#1F262E" stroke-width="3"/>
    <path d="M467 122L400 249" stroke="#1F262E" stroke-width="3"/>
    <path d="M467 122L513 14" stroke="#1F262E" stroke-width="3"/>
    <path d="M622 110L513 14" stroke="#1F262E" stroke-width="3"/>
    <path d="M686 -48L513 14" stroke="#1F262E" stroke-width="3"/>
    <path d="M499 -162L513 14" stroke="#1F262E" stroke-width="3"/>
    <path d="M622 110L467 122" stroke="#1F262E" stroke-width="3"/>
    <path d="M581 308L467 122" stroke="#1F262E" stroke-width="3"/>
    <path d="M581 308L499 439" stroke="#1F262E" stroke-width="3"/>
    <path d="M350 521L499 439" stroke="#1F262E" stroke-width="3"/>
    <path d="M350 520L513 614" stroke="#1F262E" stroke-width="3"/>
    <path d="M499 439L513 614" stroke="#1F262E" stroke-width="3"/>
    <path d="M499 439L686.03 553.998" stroke="#1F262E" stroke-width="3"/>
    <path d="M499 439L730 434" stroke="#1F262E" stroke-width="3"/>
    <path d="M686 554L730 434" stroke="#1F262E" stroke-width="3"/>
    <path d="M581 308L730 434" stroke="#1F262E" stroke-width="3"/>
    <path d="M581 308L622 110" stroke="#1F262E" stroke-width="3"/>
    <path d="M719 227L622 110" stroke="#1F262E" stroke-width="3"/>
    <path d="M719 227L581 308" stroke="#1F262E" stroke-width="3"/>
    <path d="M719 227L806 61" stroke="#1F262E" stroke-width="3"/>
    <path d="M622 110L806 61" stroke="#1F262E" stroke-width="3"/>
    <path d="M622 110L686 -48" stroke="#1F262E" stroke-width="3"/>
    <path d="M806 61L686 -46" stroke="#1F262E" stroke-width="3"/>
    <path d="M806 61L911 -106" stroke="#1F262E" stroke-width="3"/>
    <path d="M806 61L968 92" stroke="#1F262E" stroke-width="3"/>
    <path d="M806 61L901 218" stroke="#1F262E" stroke-width="3"/>
    <path d="M719 227L901 218" stroke="#1F262E" stroke-width="3"/>
    <path d="M719 227L824 337" stroke="#1F262E" stroke-width="3"/>
    <path d="M719 227L730 434" stroke="#1F262E" stroke-width="3"/>
    <path d="M824 337L730 434" stroke="#1F262E" stroke-width="3"/>
    <path d="M911 494L730 434" stroke="#1F262E" stroke-width="3"/>
    <path d="M911 494L824 337" stroke="#1F262E" stroke-width="3"/>
    <path d="M1056 352L824 337" stroke="#1F262E" stroke-width="3"/>
    <path d="M1056 352L911 494" stroke="#1F262E" stroke-width="3"/>
    <path d="M1056 352L1028 581" stroke="#1F262E" stroke-width="3"/>
    <path d="M911 494L1028 581" stroke="#1F262E" stroke-width="3"/>
    <path d="M1172 717L1028 581" stroke="#1F262E" stroke-width="3"/>
    <path d="M1158 535L1028 581" stroke="#1F262E" stroke-width="3"/>
    <path d="M1158 535L1282 661" stroke="#1F262E" stroke-width="3"/>
    <path d="M1172 717L1028 581" stroke="#1F262E" stroke-width="3"/>
    <path d="M1158 535L1056 352" stroke="#1F262E" stroke-width="3"/>
    <path d="M1158 535L1282 343" stroke="#1F262E" stroke-width="3"/>
    <path d="M1158 535L1370 431" stroke="#1F262E" stroke-width="3"/>
    <path d="M1158 535L1335 587" stroke="#1F262E" stroke-width="3"/>
    <path d="M1158 535L1172 717" stroke="#1F262E" stroke-width="3"/>
    <path d="M911 494L968 692" stroke="#1F262E" stroke-width="3"/>
    <path d="M968 692L1028 581" stroke="#1F262E" stroke-width="3"/>
    <path d="M1056 352L901 218" stroke="#1F262E" stroke-width="3"/>
    <path d="M968 92L901 218" stroke="#1F262E" stroke-width="3"/>
    <path d="M968 92L911 -106" stroke="#1F262E" stroke-width="3"/>
    <path d="M968 92L1028 -19" stroke="#1F262E" stroke-width="3"/>
    <path d="M968 92L1172 117" stroke="#1F262E" stroke-width="3"/>
    <path d="M1028 -19L1172 117" stroke="#1F262E" stroke-width="3"/>
    <path d="M1282 60L1172 117" stroke="#1F262E" stroke-width="3"/>
    <path d="M1345 172L1172 117" stroke="#1F262E" stroke-width="3"/>
    <path d="M1158 -65L1172 117" stroke="#1F262E" stroke-width="3"/>
    <path d="M1082 278L1172 117" stroke="#1F262E" stroke-width="3"/>
    <path d="M1282 343L1172 117" stroke="#1F262E" stroke-width="3"/>
    <path d="M1082 278L968 92" stroke="#1F262E" stroke-width="3"/>
    <path d="M1082 278L901 218" stroke="#1F262E" stroke-width="3"/>
    <path d="M1082 278L1056 352" stroke="#1F262E" stroke-width="3"/>
    <path d="M1281.8 343.5L1056 352" stroke="#1F262E" stroke-width="3"/>
    <path d="M1082 278L1281.8 343.5" stroke="#1F262E" stroke-width="3"/>
    <path d="M911 494L686 554" stroke="#1F262E" stroke-width="3"/>
    <path d="M806 661L686 554" stroke="#1F262E" stroke-width="3"/>
    <path d="M622 710L686 554" stroke="#1F262E" stroke-width="3"/>
    <path d="M911 494L806 661" stroke="#1F262E" stroke-width="3"/>
    <path d="M901 218L824 337" stroke="#1F262E" stroke-width="3"/>
    <path d="M513 614L686.03 553.998" stroke="#1F262E" stroke-width="3"/>
    <path d="M134 588L-42 535" stroke="#1F262E" stroke-width="3"/>
    <path d="M81 661L-42 535" stroke="#1F262E" stroke-width="3"/>
    <path d="M134 588L81 661" stroke="#1F262E" stroke-width="3"/>
    <path d="M134 588L296.025 673.952" stroke="#1F262E" stroke-width="3"/>
    <path d="M134 588L143.955 773.002" stroke="#1F262E" stroke-width="3"/>
    <path d="M134 588L350 521" stroke="#1F262E" stroke-width="3"/>
    <path d="M296 675L350 521" stroke="#1F262E" stroke-width="3"/>
    <path d="M81 344L-42 534" stroke="#1F262E" stroke-width="3"/>
    <path d="M81 344L-144 352" stroke="#1F262E" stroke-width="3"/>
    <path d="M81 344L-118 278" stroke="#1F262E" stroke-width="3"/>
    <path d="M81 344L-28 117" stroke="#1F262E" stroke-width="3"/>
    <path d="M296 74L144 173" stroke="#1F262E" stroke-width="3"/>
    <path d="M245 255L144 173" stroke="#1F262E" stroke-width="3"/>
    <path d="M245 255L400 249" stroke="#1F262E" stroke-width="3"/>
    <path d="M296 74L134 -12" stroke="#1F262E" stroke-width="3"/>
    <path d="M296 74L350 -79" stroke="#1F262E" stroke-width="3"/>
    <path d="M296 74L513 14" stroke="#1F262E" stroke-width="3"/>
    <path d="M349.5 -79L513 14.0001" stroke="#1F262E" stroke-width="3"/>
    <path d="M296 74L467 122" stroke="#1F262E" stroke-width="3"/>
    <path d="M296 74L400 249" stroke="#1F262E" stroke-width="3"/>
    <path d="M296 74L245 255" stroke="#1F262E" stroke-width="3"/>
    <path d="M134 -13L144 173" stroke="#1F262E" stroke-width="3"/>
  </g>
  <defs>
    <clipPath id="clip0">
      <rect width="1201.4" height="600.5" fill="white" transform="translate(0.600586 0.5)"/>
    </clipPath>
  </defs>
</svg>
